<svg xmlns="http://www.w3.org/2000/svg" xmlns:xlink="http://www.w3.org/1999/xlink" version="1.1" width="256" height="256" viewBox="0 0 256 256" xml:space="preserve">
<g style="stroke: none; stroke-width: 0; stroke-dasharray: none; stroke-linecap: butt; stroke-linejoin: miter; stroke-miterlimit: 10; fill: none; fill-rule: nonzero; opacity: 1;" transform="translate(1.4065934065934016 1.4065934065934016) scale(2.81 2.81)">
	<polygon points="31.82,31.28 58.72,58.19 77.99,31.9 58.1,12.01 " style="stroke: none; stroke-width: 1; stroke-dasharray: none; stroke-linecap: butt; stroke-linejoin: miter; stroke-miterlimit: 10; fill: rgb(255,74,74); fill-rule: nonzero; opacity: 1;" transform="  matrix(1 0 0 1 0 0) "/>
	<rect x="52.78" y="12.9" rx="0" ry="0" width="38.04" height="10.61" style="stroke: none; stroke-width: 1; stroke-dasharray: none; stroke-linecap: butt; stroke-linejoin: miter; stroke-miterlimit: 10; fill: rgb(231,52,63); fill-rule: nonzero; opacity: 1;" transform=" matrix(-0.7071 -0.7071 0.7071 -0.7071 109.6957 81.8418) "/>
	<path d="M 31.311 30.78 L 59.22 58.689 c 2.627 2.627 2.627 6.886 0 9.513 l -2.747 2.747 L 19.051 33.528 l 2.747 -2.747 C 24.425 28.154 28.685 28.154 31.311 30.78 z" style="stroke: none; stroke-width: 1; stroke-dasharray: none; stroke-linecap: butt; stroke-linejoin: miter; stroke-miterlimit: 10; fill: rgb(231,52,63); fill-rule: nonzero; opacity: 1;" transform=" matrix(1 0 0 1 0 0) " stroke-linecap="round"/>
	<path d="M 7.165 80.514 L 1 89 l 8.486 -6.165 c 5.137 -3.732 9.973 -7.862 14.463 -12.352 l 16.029 -16.029 l -4.432 -4.432 L 19.517 66.051 C 15.027 70.541 10.897 75.376 7.165 80.514 z" style="stroke: none; stroke-width: 1; stroke-dasharray: none; stroke-linecap: butt; stroke-linejoin: miter; stroke-miterlimit: 10; fill: rgb(163,191,193); fill-rule: nonzero; opacity: 1;" transform=" matrix(1 0 0 1 0 0) " stroke-linecap="round"/>
	<path d="M 58.716 59.185 c -0.265 0 -0.519 -0.104 -0.707 -0.293 l -26.9 -26.9 c -0.207 -0.206 -0.313 -0.492 -0.29 -0.783 s 0.17 -0.558 0.406 -0.73 l 26.288 -19.274 c 0.396 -0.292 0.948 -0.251 1.298 0.1 L 78.696 31.19 c 0.349 0.349 0.392 0.9 0.1 1.298 L 59.522 58.775 c -0.173 0.235 -0.439 0.384 -0.73 0.406 C 58.767 59.184 58.741 59.185 58.716 59.185 z M 33.347 31.401 l 25.252 25.252 l 18.077 -24.655 L 58.002 13.324 L 33.347 31.401 z" style="stroke: none; stroke-width: 1; stroke-dasharray: none; stroke-linecap: butt; stroke-linejoin: miter; stroke-miterlimit: 10; fill: rgb(0,0,0); fill-rule: nonzero; opacity: 1;" transform=" matrix(1 0 0 1 0 0) " stroke-linecap="round"/>
	<path d="M 81.496 36.404 c -0.256 0 -0.512 -0.098 -0.707 -0.293 l -26.9 -26.9 c -0.391 -0.391 -0.391 -1.023 0 -1.414 l 7.504 -7.504 c 0.391 -0.391 1.023 -0.391 1.414 0 l 26.9 26.9 c 0.391 0.391 0.391 1.023 0 1.414 l -7.504 7.504 C 82.008 36.307 81.752 36.404 81.496 36.404 z M 56.01 8.504 L 81.496 33.99 l 6.09 -6.09 L 62.1 2.414 L 56.01 8.504 z" style="stroke: none; stroke-width: 1; stroke-dasharray: none; stroke-linecap: butt; stroke-linejoin: miter; stroke-miterlimit: 10; fill: rgb(0,0,0); fill-rule: nonzero; opacity: 1;" transform=" matrix(1 0 0 1 0 0) " stroke-linecap="round"/>
	<path d="M 56.473 71.948 c -0.256 0 -0.512 -0.098 -0.707 -0.293 l -37.421 -37.42 c -0.391 -0.391 -0.391 -1.023 0 -1.414 l 2.747 -2.748 c 3.013 -3.012 7.915 -3.013 10.927 0 l 27.908 27.908 c 3.013 3.013 3.013 7.914 0 10.927 l -2.747 2.747 C 56.984 71.851 56.729 71.948 56.473 71.948 z M 20.465 33.528 l 36.007 36.006 l 2.04 -2.04 c 2.232 -2.232 2.232 -5.866 0 -8.099 L 30.604 31.487 c -2.232 -2.231 -5.865 -2.232 -8.099 0 L 20.465 33.528 z" style="stroke: none; stroke-width: 1; stroke-dasharray: none; stroke-linecap: butt; stroke-linejoin: miter; stroke-miterlimit: 10; fill: rgb(0,0,0); fill-rule: nonzero; opacity: 1;" transform=" matrix(1 0 0 1 0 0) " stroke-linecap="round"/>
	<path d="M 1 90 c -0.258 0 -0.514 -0.1 -0.708 -0.293 c -0.348 -0.348 -0.391 -0.896 -0.102 -1.295 l 6.165 -8.486 c 3.749 -5.16 7.938 -10.066 12.454 -14.582 l 16.029 -16.029 c 0.375 -0.375 1.039 -0.375 1.414 0 l 4.433 4.433 c 0.391 0.391 0.391 1.023 0 1.414 L 24.656 71.19 c -4.516 4.516 -9.422 8.705 -14.582 12.454 l -8.486 6.164 C 1.412 89.938 1.206 90 1 90 z M 35.545 51.436 L 20.224 66.758 c -4.441 4.441 -8.563 9.268 -12.25 14.344 l 0 0 l -2.456 3.38 l 3.38 -2.455 c 5.076 -3.688 9.902 -7.809 14.344 -12.25 l 15.322 -15.322 L 35.545 51.436 z M 7.165 80.514 h 0.01 H 7.165 z" style="stroke: none; stroke-width: 1; stroke-dasharray: none; stroke-linecap: butt; stroke-linejoin: miter; stroke-miterlimit: 10; fill: rgb(0,0,0); fill-rule: nonzero; opacity: 1;" transform=" matrix(1 0 0 1 0 0) " stroke-linecap="round"/>
</g>
</svg>